<?xml version="1.0" encoding="utf-8"?>
<!-- Generator: Adobe Illustrator 25.3.0, SVG Export Plug-In . SVG Version: 6.00 Build 0)  -->
<svg version="1.1" id="Layer_1" xmlns="http://www.w3.org/2000/svg" xmlns:xlink="http://www.w3.org/1999/xlink" x="0px" y="0px"
	 viewBox="0 0 97.03 106.57" style="enable-background:new 0 0 97.03 106.57;" xml:space="preserve">
<style type="text/css">
	.st0{fill:currentColor;}
</style>
<g>
	<path class="st0" d="M94.3,20.93c-1.79-1.29-4.88-1.9-4.88-1.9c-2.13-0.51-5.61-0.63-5.61-0.63c-0.39-0.02-0.77-0.03-1.13-0.03
		C82.24,8.17,73.86,0.03,63.55,0.03c-10.58,0-19.17,8.58-19.17,19.17c0,6.59,3.33,12.4,8.4,15.85c-4.15,1.91-7.54,4.82-10.03,8.28
		l-4.16-3.24c0.64-1.57,1.21-3.59,1.07-5.6c-0.01-0.53-0.16-1.77-0.54-2.6c0,0-0.23-0.49-0.8-0.26c0,0-0.46,0.23-0.3,0.74
		c0,0,0.84,1.77,0.2,4.85c0,0-0.15,0.84-0.63,2.1l-5.65-4.4c-0.23-0.14-0.43-0.12-0.57-0.06c-0.07,0-0.15,0.01-0.24,0.05
		c0,0-0.5,0.22-0.31,0.78l3.15,6.64c-1.3,0.19-2.13,0.15-2.13,0.15c-3.14-0.04-4.69-1.25-4.69-1.25c-0.46-0.27-0.79,0.13-0.79,0.13
		c-0.35,0.5,0.08,0.83,0.08,0.83c0.72,0.55,1.91,0.96,2.42,1.09c1.91,0.57,3.99,0.45,5.65,0.18l2.58,5.44
		c0.02,0.07,0.04,0.15,0.06,0.22c0.32,1.04,0.83,1.99,1.38,2.81l0.09,0.19c-0.45,1.76-0.72,3.56-0.77,5.36
		c-0.4,12.47,7.66,19.33,7.66,19.33C3.16,76.27,0.15,81.27,0.06,83.75c-0.15,4.18,5.28,2.7,5.28,2.7
		c8.14-5.33,50.11-3.49,50.11-3.49s1.08-0.05,3.17-0.08l-6.05,7.66c-7.6-4.24-13.91,0.21-13.91,0.21c-0.64,0.98-0.07,2.02-0.07,2.02
		c0.91,0.48,2.08-0.04,2.08-0.04c5.91-2.8,7.07,2.87,7.07,2.87l-1.02,2.35c-0.2,1.09,0.58,1.64,0.58,1.64
		c0.69,0.49,1.6,0.08,1.6,0.08l1.97-1.4c5.48,0.04,4.6,6.11,4.6,6.11c-0.25,1.35,0.4,2.05,0.4,2.05c1.19,0.41,1.93-0.54,1.93-0.54
		c2.62-8.47-3.04-13.63-3.04-13.63l7.41-9.38c0.31,0,0.64,0,0.97,0.01c5.99,0.06,9.33-0.19,9.33-0.19l14.49,0.38
		c2.69-0.03,2.79-2.67,2.79-2.67c0.09-2.48-2.45-2.84-2.45-2.84l-5.97-0.27c0,0,7.57-6.04,8.17-17.92
		c0.47-9.17-4.93-19.99-14.87-24.56c1.33-0.94,2.53-2.04,3.58-3.28c3.47,0.65,4.69,0.68,4.69,0.68c3.69,0.41,6.42,0.04,6.42,0.04
		c2.38-0.2,4.1-1.05,4.1-1.05c1.14-0.48,2.01-1.42,2.01-1.42c3.07-3.35,0.67-7.04,0.67-7.04C95.39,21.65,94.3,20.93,94.3,20.93z
		 M39.38,42.23l0.66,0.51c-0.32-0.02-0.64-0.03-0.99-0.02C39.25,42.4,39.38,42.23,39.38,42.23z M38.09,41.22L38.09,41.22
		C38.09,41.22,38.09,41.22,38.09,41.22C38.09,41.22,38.09,41.22,38.09,41.22z M32.85,37.14l4.26,3.32
		c-0.19,0.42-0.42,0.87-0.68,1.33c-0.43,0.12-0.84,0.23-1.23,0.31L32.85,37.14z M36.83,45.53l-0.48-1.01c0,0,0.28-0.13,0.75-0.27
		C36.98,44.69,36.89,45.11,36.83,45.53z M37.62,42.9c-0.17,0.03-0.33,0.06-0.51,0.1c0,0,0.05-0.07,0.12-0.2
		c0.32-0.1,0.5-0.17,0.5-0.17C37.69,42.72,37.66,42.81,37.62,42.9z M39.14,50.39l-0.86-1.82c-0.55-1.83-0.25-3.45,0.18-4.6
		c0.99-0.11,2.23-0.06,3.53,0.46C40.79,46.31,39.83,48.31,39.14,50.39z M63.31,11.41c-0.09-3.15,2.39-5.41,5.29-5.49
		c2.9-0.07,5.37,2.32,5.41,5.22c0.04,2.91-2.09,4.37-2.09,4.37c1.19,0.54,2.17,1.45,2.17,1.45s0.42,0.57-0.01,1.02
		c-0.3,0.38-0.82,0.06-0.82,0.06c-1.52-1.27-3.11-1.6-3.11-1.6c-1.86-0.24-3.11,0.01-3.11,0.01c-0.49-0.03-2.5,1.4-2.5,1.4
		s-0.46,0.33-0.86-0.06c-0.36-0.36-0.07-0.91-0.07-0.91c0.79-0.88,1.77-1.36,1.77-1.36C63.18,13.74,63.31,11.41,63.31,11.41z
		 M74.77,54.47c0,0,0.59,2.91-0.55,6.18c-0.39,1.13-0.6,1.64-1.75,3.67c0,0-1.84,3.34-4.85,5.67c0,0-2.49,2.11-6.19,2.72
		c0,0-2.84,0.61-6.34-0.55c0,0-2.54-0.71-4.86-2.46c0,0-2.6-1.73-4.03-4.61c0,0-1.68-2.9-1.37-6.86c0,0,0.06-2.53,1.21-5.51
		c0,0,1.07-3.32,3.24-5.91c0,0,1.86-2.4,4.83-4.05c0,0,2.17-1.21,3.15-1.33c0,0,0.99-0.21,1.53,1.01c0,0,0.45,1.44-1.08,1.92
		c0,0-3.06,0.95-5.58,3.72c0,0-2.42,2.17-3.85,7.34c0,0-1,3.37-0.15,6.46c0,0,0.64,3.11,3.9,5.44c0,0,2.34,1.75,5.19,2.33
		c0,0,2.91,0.75,5.96-0.53c0,0,4.02-1.38,6.96-6.77c0,0,2.29-3.47,1.72-7.07c0,0-0.12-2.54-1.78-5.09c0,0-0.73-1.19,0.54-2.05
		c0,0,1-0.63,1.86,0.3C72.49,48.46,74.14,50.51,74.77,54.47z M93.53,28.95c-1.75,1.29-4.68,1.45-4.68,1.45
		c-2.29,0.29-6.02-0.09-6.02-0.09c-0.96-0.08-2.28-0.29-3.34-0.47c1.85-2.77,2.98-6.04,3.17-9.57c0.54,0.01,0.87,0.02,0.87,0.02
		c4.02,0.13,6.73,0.93,6.73,0.93c3.13,0.83,4.06,2.33,4.06,2.33C96.55,26.6,93.53,28.95,93.53,28.95z"/>
	<path class="st0" d="M69.02,11.35c0,0-0.41,0.21-0.75,0.58c0,0-0.12,0.23,0.03,0.38c0.17,0.16,0.36,0.02,0.36,0.02
		s0.85-0.61,1.05-0.6c0,0,0.52-0.1,1.31-0.01c0,0,0.67,0.14,1.32,0.67c0,0,0.22,0.14,0.34-0.03c0.18-0.19,0-0.43,0-0.43
		s-0.41-0.38-0.92-0.61c0,0,0.9-0.62,0.87-1.85c-0.02-1.23-1.07-2.23-2.3-2.19s-2.27,1-2.22,2.33C68.13,9.62,68.08,10.6,69.02,11.35
		z"/>
</g>
</svg>
