<?xml version="1.0" encoding="utf-8"?>
<!-- Generator: Adobe Illustrator 25.3.0, SVG Export Plug-In . SVG Version: 6.00 Build 0)  -->
<svg version="1.1" xmlns="http://www.w3.org/2000/svg" xmlns:xlink="http://www.w3.org/1999/xlink" x="0px" y="0px"
	 viewBox="0 0 266 299" style="enable-background:new 0 0 266 299;" xml:space="preserve">
<style type="text/css">
	.st0{fill:#98CA3F;}
	.st1{display:none;}
</style>
<g id="Layer_1">
	<path class="st0" d="M218,251l-34-34l-33.83,34L49,149l96.52-97.48c1.93-1.95,5.07-1.98,7.04-0.07l61.81,59.98
		c2,1.94,2.03,5.15,0.05,7.12L150,183l34,34l72-73c0,0,22-27,0-58L178,8c0,0-30-21-61,4L11,119c0,0-24,26-1,60l110,110
		c0,0,29,24,61-1L218,251z"/>
</g>
<g id="Layer_2" class="st1">
</g>
</svg>
