<?xml version="1.0" encoding="utf-8"?>
<!-- Generator: Adobe Illustrator 16.0.0, SVG Export Plug-In . SVG Version: 6.00 Build 0)  -->
<!DOCTYPE svg PUBLIC "-//W3C//DTD SVG 1.1//EN" "http://www.w3.org/Graphics/SVG/1.1/DTD/svg11.dtd">
<svg version="1.1" id="Layer_1" xmlns="http://www.w3.org/2000/svg" xmlns:xlink="http://www.w3.org/1999/xlink" x="0px" y="0px"
	 width="516.484px" height="560px" viewBox="0 0 516.484 560" enable-background="new 0 0 516.484 560" xml:space="preserve">
<path d="M428.47,406.405l31.49,1.411c0,0,13.396,1.889,12.913,14.951c0,0-0.515,13.943-14.7,14.077l-76.413-1.987
	c0,0-17.615,1.333-49.187,0.999c-26.548-0.294-40.543,0.381-40.543,0.381s-221.264-9.69-264.174,18.411
	c0,0-28.648,7.848-27.84-14.22c0.489-13.089,16.347-39.45,239.729-36.619c0,0-42.493-36.145-40.408-101.904
	c2.09-65.761,55.54-132.161,141.124-131.1c85.583,1.061,134.286,78.478,131.099,141.118
	C468.377,374.57,428.47,406.405,428.47,406.405z"/>
<path d="M233.752,100.056C233.752,44.248,278.995-1,334.802-1c55.813,0,101.056,45.248,101.056,101.056
	c0,55.808-45.242,101.056-101.056,101.056C278.995,201.112,233.752,155.864,233.752,100.056z"/>
<path fill="#FFFFFF" d="M344.518,80.671c0,0-5.159,2.533-9.34,7.167c0,0-1.565,2.894,0.355,4.799c2.116,2.054,4.53,0.33,4.53,0.33
	s10.638-7.558,13.197-7.383c0,0,6.559-1.282,16.389-0.042c0,0,8.372,1.771,16.389,8.444c0,0,2.708,1.72,4.31-0.299
	c2.234-2.374,0.036-5.36,0.036-5.36s-5.149-4.814-11.431-7.667c0,0,11.229-7.744,10.993-23.066
	c-0.236-15.318-13.243-27.907-28.545-27.525c-15.292,0.38-28.371,12.315-27.887,28.925C333.515,58.994,332.815,71.31,344.518,80.671
	z"/>
<path d="M276.812,476.218l116.522-147.391c0,0,8.258-0.833,11.508,9.099L288.38,485.243c0,0,29.813,27.196,16.003,71.878
	c0,0-3.943,4.984-10.199,2.842c0,0-3.425-3.646-2.111-10.781c0,0,4.613-32.005-24.266-32.201l-10.365,7.395
	c0,0-4.783,2.137-8.434-0.443c0,0-4.098-2.919-3.053-8.64l5.396-12.398c0,0-6.117-29.899-37.293-15.158
	c0,0-6.143,2.745-10.946,0.236c0,0-3.048-5.452,0.35-10.638C203.461,477.334,236.728,453.883,276.812,476.218z"/>
<path d="M473.923,121.82c0,0-44.732-24.915-56.843-36.778c0,0-1.798-9.706,8.11-9.448c0,0,12.701,13.681,91.293,55.061
	c0,0-77.419,4.624-104.793,16.507c0,0-9.104-2.976-5.835-11.08C405.856,136.082,415.793,128.905,473.923,121.82z"/>
<path d="M167.528,350.818c0,0,51.606,14.982,66.78,24.282c0,0,4.109,9.504-6.086,11.568c0,0-16.198-11.018-106.308-34.913
	c0,0,78.113-22.892,103.332-41.469c0,0,10.004,0.911,8.563,9.968C233.809,320.255,225.334,329.936,167.528,350.818z"/>
</svg>
